<svg aria-hidden="true" style="position: absolute; width: 0; height: 0; overflow: hidden;" version="1.1" xmlns="http://www.w3.org/2000/svg" xmlns:xlink="http://www.w3.org/1999/xlink">
<defs>
<symbol id="icon-chat_bubble_outline" viewBox="0 0 24 24">
<path d="M20.016 15.984v-12h-16.031v14.016l2.016-2.016h14.016zM20.016 2.016q0.797 0 1.383 0.586t0.586 1.383v12q0 0.797-0.586 1.406t-1.383 0.609h-14.016l-3.984 3.984v-18q0-0.797 0.586-1.383t1.383-0.586h16.031z"></path>
</symbol>
<symbol id="icon-directions_subway" viewBox="0 0 24 24">
<path d="M18 11.016v-5.016h-5.016v5.016h5.016zM16.5 17.016q0.656 0 1.078-0.445t0.422-1.055-0.422-1.055-1.078-0.445-1.078 0.445-0.422 1.055 0.422 1.055 1.078 0.445zM11.016 11.016v-5.016h-5.016v5.016h5.016zM7.5 17.016q0.656 0 1.078-0.445t0.422-1.055-0.422-1.055-1.078-0.445-1.078 0.445-0.422 1.055 0.422 1.055 1.078 0.445zM12 2.016q3.891 0 5.953 0.797t2.063 3.188v9.516q0 1.453-1.031 2.461t-2.484 1.008l1.5 1.5v0.516h-12v-0.516l1.5-1.5q-1.453 0-2.484-1.008t-1.031-2.461v-9.516q0-2.391 2.063-3.188t5.953-0.797z"></path>
</symbol>
<symbol id="icon-location_city" viewBox="0 0 24 24">
<path d="M18.984 15v-2.016h-1.969v2.016h1.969zM18.984 18.984v-1.969h-1.969v1.969h1.969zM12.984 6.984v-1.969h-1.969v1.969h1.969zM12.984 11.016v-2.016h-1.969v2.016h1.969zM12.984 15v-2.016h-1.969v2.016h1.969zM12.984 18.984v-1.969h-1.969v1.969h1.969zM6.984 11.016v-2.016h-1.969v2.016h1.969zM6.984 15v-2.016h-1.969v2.016h1.969zM6.984 18.984v-1.969h-1.969v1.969h1.969zM15 11.016h6v9.984h-18v-14.016h6v-1.969l3-3 3 3v6z"></path>
</symbol>
<symbol id="icon-bookmark" viewBox="0 0 24 24">
<path d="M17.016 3q0.797 0 1.383 0.609t0.586 1.406v15.984l-6.984-3-6.984 3v-15.984q0-0.797 0.586-1.406t1.383-0.609h10.031z"></path>
</symbol>
<symbol id="icon-bookmark_outline" viewBox="0 0 24 24">
<path d="M17.016 18v-12.984h-10.031v12.984l5.016-2.203zM17.016 3q0.797 0 1.383 0.609t0.586 1.406v15.984l-6.984-3-6.984 3v-15.984q0-0.797 0.586-1.406t1.383-0.609h10.031z"></path>
</symbol>
<symbol id="icon-room_service" viewBox="0 0 24 24">
<path d="M13.828 7.781q2.953 0.609 4.969 2.883t2.203 5.32h-18q0.188-3.047 2.203-5.32t4.969-2.883q-0.188-0.375-0.188-0.797 0-0.844 0.586-1.406t1.43-0.563 1.43 0.563 0.586 1.406q0 0.422-0.188 0.797zM2.016 17.016h19.969v1.969h-19.969v-1.969z"></path>
</symbol>
<symbol id="icon-search" viewBox="0 0 16 16">
<path d="M15.56 15.56c-0.587 0.587-1.538 0.587-2.125 0l-2.652-2.652c-1.090 0.699-2.379 1.116-3.771 1.116-3.872 0-7.012-3.139-7.012-7.012s3.14-7.012 7.012-7.012c3.873 0 7.012 3.139 7.012 7.012 0 1.391-0.417 2.68-1.116 3.771l2.652 2.652c0.587 0.587 0.587 1.538 0 2.125zM7.012 2.003c-2.766 0-5.009 2.242-5.009 5.009s2.243 5.009 5.009 5.009c2.766 0 5.009-2.242 5.009-5.009s-2.242-5.009-5.009-5.009z"></path>
</symbol>
<symbol id="icon-clock" viewBox="0 0 16 16">
<path d="M9 7v-3h-2v5h4v-2zM8 0c-4.418 0-8 3.582-8 8s3.582 8 8 8 8-3.582 8-8-3.582-8-8-8zM8 14c-3.313 0-6-2.687-6-6s2.687-6 6-6 6 2.687 6 6-2.687 6-6 6z"></path>
</symbol>
<symbol id="icon-forkandknife" viewBox="0 0 16 16">
<path d="M7 0c-0.552 0-1 0.447-1 1v5h-1v-5c0-0.553-0.448-1-1-1s-1 0.447-1 1v5h-1v-5c0-0.553-0.448-1-1-1s-1 0.447-1 1v6c0 0.553 0.448 1 1 1h2v7c0 0.553 0.448 1 1 1s1-0.447 1-1v-7h2c0.552 0 1-0.447 1-1v-6c0-0.553-0.448-1-1-1zM14 0c0 0-2 0.645-2 3v2c0 1.305 0.837 2.403 2 2.816v7.184c0 0.553 0.448 1 1 1s1-0.447 1-1v-15h-2z"></path>
</symbol>
<symbol id="icon-pin" viewBox="0 0 16 16">
<path d="M8 0c-3.313 0-6 2.687-6 6s6 10 6 10 6-6.687 6-10-2.687-6-6-6zM8 10c-2.209 0-4-1.791-4-4s1.791-4 4-4 4 1.791 4 4-1.791 4-4 4z"></path>
</symbol>
<symbol id="icon-office" viewBox="0 0 16 16">
<path d="M0 16h8v-16h-8v16zM5 2h2v2h-2v-2zM5 6h2v2h-2v-2zM5 10h2v2h-2v-2zM1 2h2v2h-2v-2zM1 6h2v2h-2v-2zM1 10h2v2h-2v-2zM9 5h7v1h-7zM9 16h2v-4h3v4h2v-9h-7z"></path>
</symbol>
<symbol id="icon-location" viewBox="0 0 16 16">
<path d="M8 0c-2.761 0-5 2.239-5 5 0 5 5 11 5 11s5-6 5-11c0-2.761-2.239-5-5-5zM8 8c-1.657 0-3-1.343-3-3s1.343-3 3-3 3 1.343 3 3-1.343 3-3 3z"></path>
</symbol>
<symbol id="icon-user-tie" viewBox="0 0 16 16">
<path d="M5 3c0-1.657 1.343-3 3-3s3 1.343 3 3c0 1.657-1.343 3-3 3s-3-1.343-3-3zM12.001 7h-0.553l-3.111 6.316 1.163-5.816-1.5-1.5-1.5 1.5 1.163 5.816-3.111-6.316h-0.554c-1.999 0-1.999 1.344-1.999 3v5h12v-5c0-1.656 0-3-1.999-3z"></path>
</symbol>
<symbol id="icon-time" viewBox="0 0 16 16">
<path d="M8 1.75c-3.591 0-6.5 2.91-6.5 6.5s2.909 6.5 6.5 6.5c3.59 0 6.5-2.91 6.5-6.5s-2.91-6.5-6.5-6.5zM7.947 13.514c-2.899 0-5.25-2.351-5.25-5.25s2.351-5.25 5.25-5.25c2.899 0 5.25 2.351 5.25 5.25s-2.351 5.25-5.25 5.25zM9.465 8.566h-1.49v-2.516c0-0.273-0.221-0.495-0.495-0.495s-0.495 0.221-0.495 0.495v3.011c0 0.274 0.221 0.495 0.495 0.495h1.985c0.274 0 0.495-0.221 0.495-0.495s-0.222-0.495-0.495-0.495z"></path>
</symbol>
<symbol id="icon-phone" viewBox="0 0 16 16">
<path d="M7.665 9.88c-0.013-0.009-1.517-2.537-1.522-2.57-0.311-0.679-0.562-1.375-0.039-1.683l-2.171-3.66c-0.563 0.421-2.154 2.703 0.825 7.874 3.137 5.45 6.123 5.223 6.721 4.854l-2.115-3.572c-0.5 0.294-0.921-0.191-1.699-1.243zM12.931 13.309l0.001-0.003c0 0-1.652-2.783-1.652-2.784-0.131-0.22-0.412-0.29-0.632-0.162l-1.012 0.598 2.121 3.583c0 0 1.012-0.595 1.011-0.598h0.002c0.232-0.138 0.286-0.423 0.162-0.635zM7.393 4.868v-0.002c0.232-0.138 0.287-0.423 0.162-0.633l0.001-0.003c0 0-1.699-2.865-1.7-2.865-0.13-0.222-0.413-0.29-0.631-0.162l-1.012 0.599 2.168 3.662c0 0 1.011-0.595 1.012-0.596z"></path>
</symbol>
<symbol id="icon-tie" viewBox="0 0 16 16">
<path d="M8.451 4.484l0.624-2.962h-3.175l0.649 2.962h1.902zM6.535 5.038l-2.1 6.692 3.175 2.637 2.93-2.637-2.052-6.691h-1.954zM9.417 5.967l1.466 4.030h0.879v-0.904l-2.345-3.126z"></path>
</symbol>
<symbol id="icon-magnifier" viewBox="0 0 16 16">
<path d="M14.578 14.98l-0.354 0.354c-0.393 0.392-1.027 0.392-1.419 0l-2.838-2.837c-0.328-0.329-0.364-0.822-0.14-1.206l-1.552-1.551c-0.835 0.619-1.864 0.989-2.982 0.989-2.77 0-5.016-2.245-5.016-5.016s2.245-5.016 5.016-5.016c2.771 0 5.016 2.245 5.016 5.016 0 1.29-0.49 2.462-1.29 3.35l1.518 1.518c0.384-0.223 0.877-0.188 1.205 0.142l2.838 2.837c0.392 0.393 0.392 1.028 0.001 1.419zM9.044 5.694c0-2.078-1.684-3.761-3.762-3.761s-3.762 1.683-3.762 3.761 1.684 3.761 3.761 3.761 3.763-1.684 3.763-3.761z"></path>
</symbol>
<symbol id="icon-stats" viewBox="0 0 16 16">
<path d="M2.999 2.5h-0.494v11.5h10v-0.482l-9.498-0.024-0.009-10.994zM4.005 12.5h2.5v-5.438l-2.5 2.5v2.938zM7.005 12.5h2.5v-4.938l-1 1-1.5-1.5v5.438zM10.005 12.5h2.5v-7.593l-2.5 2.5v5.093zM6.694 5.534l1.81 1.8 3.574-3.556 0.917 0.922-0.022-2.2-2.207 0.011 0.858 0.861-3.121 3.13-1.845-1.851-2.812 2.802 0.469 0.456 2.377-2.375z"></path>
</symbol>
<symbol id="icon-dollar" viewBox="0 0 16 16">
<path d="M0 12.5v-9h16v9h-16zM1 4.469v7.031h14v-7.031h-14zM10.5 8c0-1.657-1.119-3-2.5-3h6.5v6h-6.5c1.381 0 2.5-1.344 2.5-3zM12.5 9c0.414 0 0.75-0.448 0.75-1s-0.336-1-0.75-1-0.75 0.448-0.75 1 0.336 1 0.75 1zM9.059 6.739c-0.008 0.027-0.018 0.047-0.031 0.059s-0.031 0.019-0.055 0.019-0.059-0.014-0.11-0.043c-0.050-0.029-0.111-0.061-0.184-0.095s-0.157-0.065-0.253-0.093c-0.096-0.028-0.201-0.042-0.316-0.042-0.090 0-0.168 0.011-0.234 0.032s-0.122 0.052-0.167 0.090c-0.045 0.038-0.078 0.085-0.1 0.138s-0.032 0.111-0.032 0.171c0 0.090 0.024 0.168 0.074 0.233s0.114 0.124 0.197 0.175c0.082 0.051 0.175 0.099 0.28 0.144s0.21 0.093 0.319 0.142c0.108 0.051 0.214 0.107 0.319 0.17s0.197 0.139 0.278 0.228 0.146 0.193 0.197 0.312c0.050 0.12 0.075 0.261 0.075 0.424 0 0.213-0.039 0.399-0.118 0.559s-0.187 0.294-0.322 0.401c-0.136 0.107-0.293 0.188-0.475 0.242-0.023 0.007-0.048 0.010-0.072 0.015v0.546h-0.492v-0.482c-0.006 0-0.012 0.001-0.018 0.001-0.139 0-0.269-0.011-0.389-0.034s-0.226-0.050-0.317-0.082c-0.092-0.032-0.168-0.066-0.229-0.101s-0.106-0.066-0.133-0.093c-0.027-0.027-0.046-0.066-0.058-0.117s-0.018-0.124-0.018-0.22c0-0.065 0.002-0.118 0.006-0.162s0.011-0.079 0.021-0.107 0.021-0.046 0.037-0.058c0.016-0.011 0.034-0.017 0.054-0.017 0.029 0 0.070 0.017 0.123 0.052s0.122 0.072 0.205 0.114c0.083 0.042 0.183 0.079 0.298 0.114s0.25 0.052 0.402 0.052c0.1 0 0.19-0.012 0.268-0.036s0.146-0.057 0.201-0.101 0.097-0.098 0.127-0.162c0.030-0.065 0.044-0.136 0.044-0.216 0-0.091-0.025-0.17-0.075-0.236s-0.115-0.123-0.196-0.175c-0.080-0.051-0.171-0.098-0.273-0.143s-0.207-0.092-0.316-0.142c-0.108-0.050-0.213-0.107-0.316-0.171s-0.193-0.139-0.273-0.228c-0.080-0.088-0.146-0.194-0.195-0.314s-0.075-0.266-0.075-0.434c0-0.194 0.036-0.364 0.107-0.511s0.168-0.269 0.29-0.365 0.266-0.169 0.431-0.217c0.085-0.025 0.173-0.043 0.263-0.054v-0.517h0.492v0.517c0.020 0.003 0.039 0.002 0.059 0.005 0.095 0.014 0.185 0.034 0.268 0.059s0.157 0.052 0.222 0.083c0.065 0.031 0.107 0.056 0.128 0.077s0.034 0.038 0.043 0.053c0.007 0.014 0.013 0.034 0.018 0.058s0.009 0.054 0.011 0.091c0.002 0.036 0.003 0.082 0.003 0.136 0 0.061-0.002 0.112-0.005 0.154-0.005 0.040-0.009 0.074-0.017 0.101zM5.5 8c0 1.656 1.119 3 2.5 3h-6.5v-6h6.5c-1.381 0-2.5 1.343-2.5 3zM3.5 7c-0.414 0-0.75 0.448-0.75 1s0.336 1 0.75 1c0.414 0 0.75-0.448 0.75-1s-0.336-1-0.75-1z"></path>
</symbol>
<symbol id="icon-popout" viewBox="0 0 16 16">
<path d="M7.847 6.771l1.333 1.332 2.508-2.508 1.295 1.295 0.002-3.867-3.893-0.023 1.263 1.262-2.508 2.509zM12.963 8.473l-0.96-0.973 0.018 4.504-8.008 0.005 0.008-7.987 4.479-0.020-1-1h-3.5c-0.552 0-1 0.448-1 1v8c0 0.552 0.448 1 1 1h8c0.552 0 1-0.448 1-1l-0.037-3.528z"></path>
</symbol>
<symbol id="icon-gift" viewBox="0 0 12 14">
<path d="M7.25 10.594v-5.594h-2.5v5.594c0 0.273 0.227 0.406 0.5 0.406h1.5c0.273 0 0.5-0.133 0.5-0.406zM3.687 4h1.523l-0.984-1.258c-0.086-0.102-0.273-0.242-0.539-0.242-0.414 0-0.75 0.336-0.75 0.75s0.336 0.75 0.75 0.75zM9.062 3.25c0-0.414-0.336-0.75-0.75-0.75-0.266 0-0.453 0.141-0.539 0.242l-0.977 1.258h1.516c0.414 0 0.75-0.336 0.75-0.75zM12 5.25v2.5c0 0.141-0.109 0.25-0.25 0.25h-0.75v3.25c0 0.414-0.336 0.75-0.75 0.75h-8.5c-0.414 0-0.75-0.336-0.75-0.75v-3.25h-0.75c-0.141 0-0.25-0.109-0.25-0.25v-2.5c0-0.141 0.109-0.25 0.25-0.25h3.438c-0.969 0-1.75-0.781-1.75-1.75s0.781-1.75 1.75-1.75c0.523 0 1.008 0.219 1.313 0.602l1 1.289 1-1.289c0.305-0.383 0.789-0.602 1.313-0.602 0.969 0 1.75 0.781 1.75 1.75s-0.781 1.75-1.75 1.75h3.438c0.141 0 0.25 0.109 0.25 0.25z"></path>
</symbol>
<symbol id="icon-external-link" viewBox="0 0 14 14">
<path d="M11 7.25v2.5c0 1.242-1.008 2.25-2.25 2.25h-6.5c-1.242 0-2.25-1.008-2.25-2.25v-6.5c0-1.242 1.008-2.25 2.25-2.25h5.5c0.141 0 0.25 0.109 0.25 0.25v0.5c0 0.141-0.109 0.25-0.25 0.25h-5.5c-0.688 0-1.25 0.563-1.25 1.25v6.5c0 0.688 0.563 1.25 1.25 1.25h6.5c0.688 0 1.25-0.563 1.25-1.25v-2.5c0-0.141 0.109-0.25 0.25-0.25h0.5c0.141 0 0.25 0.109 0.25 0.25zM14 0.5v4c0 0.273-0.227 0.5-0.5 0.5-0.133 0-0.258-0.055-0.352-0.148l-1.375-1.375-5.094 5.094c-0.047 0.047-0.117 0.078-0.18 0.078s-0.133-0.031-0.18-0.078l-0.891-0.891c-0.047-0.047-0.078-0.117-0.078-0.18s0.031-0.133 0.078-0.18l5.094-5.094-1.375-1.375c-0.094-0.094-0.148-0.219-0.148-0.352 0-0.273 0.227-0.5 0.5-0.5h4c0.273 0 0.5 0.227 0.5 0.5z"></path>
</symbol>
<symbol id="icon-credit-card1" viewBox="0 0 15 14">
<path d="M13.75 1c0.688 0 1.25 0.563 1.25 1.25v9.5c0 0.688-0.563 1.25-1.25 1.25h-12.5c-0.688 0-1.25-0.563-1.25-1.25v-9.5c0-0.688 0.563-1.25 1.25-1.25h12.5zM1.25 2c-0.133 0-0.25 0.117-0.25 0.25v1.75h13v-1.75c0-0.133-0.117-0.25-0.25-0.25h-12.5zM13.75 12c0.133 0 0.25-0.117 0.25-0.25v-4.75h-13v4.75c0 0.133 0.117 0.25 0.25 0.25h12.5zM2 11v-1h2v1h-2zM5 11v-1h3v1h-3z"></path>
</symbol>
<symbol id="icon-money" viewBox="0 0 15 14">
<path d="M6 9h3v-0.75h-1v-3.5h-0.891l-1.156 1.070 0.602 0.625c0.187-0.164 0.305-0.25 0.43-0.445h0.016v2.25h-1v0.75zM10 7c0 1.422-0.859 3.25-2.5 3.25s-2.5-1.828-2.5-3.25 0.859-3.25 2.5-3.25 2.5 1.828 2.5 3.25zM14 9v-4c-1.102 0-2-0.898-2-2h-9c0 1.102-0.898 2-2 2v4c1.102 0 2 0.898 2 2h9c0-1.102 0.898-2 2-2zM15 2.5v9c0 0.273-0.227 0.5-0.5 0.5h-14c-0.273 0-0.5-0.227-0.5-0.5v-9c0-0.273 0.227-0.5 0.5-0.5h14c0.273 0 0.5 0.227 0.5 0.5z"></path>
</symbol>
<symbol id="icon-line-chart" viewBox="0 0 16 14">
<path d="M16 12v1h-16v-12h1v11h15zM15 2.25v3.398c0 0.219-0.266 0.336-0.43 0.172l-0.945-0.945-4.945 4.945c-0.102 0.102-0.258 0.102-0.359 0l-1.82-1.82-3.25 3.25-1.5-1.5 4.57-4.57c0.102-0.102 0.258-0.102 0.359 0l1.82 1.82 3.625-3.625-0.945-0.945c-0.164-0.164-0.047-0.43 0.172-0.43h3.398c0.141 0 0.25 0.109 0.25 0.25z"></path>
</symbol>
</defs>
</svg>
