<!-- Generated by IcoMoon.io -->
<svg version="1.1" xmlns="http://www.w3.org/2000/svg" width="15" height="14" viewBox="0 0 15 14">
<title>credit-card1</title>
<path d="M13.75 1c0.688 0 1.25 0.563 1.25 1.25v9.5c0 0.688-0.563 1.25-1.25 1.25h-12.5c-0.688 0-1.25-0.563-1.25-1.25v-9.5c0-0.688 0.563-1.25 1.25-1.25h12.5zM1.25 2c-0.133 0-0.25 0.117-0.25 0.25v1.75h13v-1.75c0-0.133-0.117-0.25-0.25-0.25h-12.5zM13.75 12c0.133 0 0.25-0.117 0.25-0.25v-4.75h-13v4.75c0 0.133 0.117 0.25 0.25 0.25h12.5zM2 11v-1h2v1h-2zM5 11v-1h3v1h-3z"></path>
</svg>
