<!-- Generated by IcoMoon.io -->
<svg version="1.1" xmlns="http://www.w3.org/2000/svg" width="16" height="16" viewBox="0 0 16 16">
<title>dollar</title>
<path d="M0 12.5v-9h16v9h-16zM1 4.469v7.031h14v-7.031h-14zM10.5 8c0-1.657-1.119-3-2.5-3h6.5v6h-6.5c1.381 0 2.5-1.344 2.5-3zM12.5 9c0.414 0 0.75-0.448 0.75-1s-0.336-1-0.75-1-0.75 0.448-0.75 1 0.336 1 0.75 1zM9.059 6.739c-0.008 0.027-0.018 0.047-0.031 0.059s-0.031 0.019-0.055 0.019-0.059-0.014-0.11-0.043c-0.050-0.029-0.111-0.061-0.184-0.095s-0.157-0.065-0.253-0.093c-0.096-0.028-0.201-0.042-0.316-0.042-0.090 0-0.168 0.011-0.234 0.032s-0.122 0.052-0.167 0.090c-0.045 0.038-0.078 0.085-0.1 0.138s-0.032 0.111-0.032 0.171c0 0.090 0.024 0.168 0.074 0.233s0.114 0.124 0.197 0.175c0.082 0.051 0.175 0.099 0.28 0.144s0.21 0.093 0.319 0.142c0.108 0.051 0.214 0.107 0.319 0.17s0.197 0.139 0.278 0.228 0.146 0.193 0.197 0.312c0.050 0.12 0.075 0.261 0.075 0.424 0 0.213-0.039 0.399-0.118 0.559s-0.187 0.294-0.322 0.401c-0.136 0.107-0.293 0.188-0.475 0.242-0.023 0.007-0.048 0.010-0.072 0.015v0.546h-0.492v-0.482c-0.006 0-0.012 0.001-0.018 0.001-0.139 0-0.269-0.011-0.389-0.034s-0.226-0.050-0.317-0.082c-0.092-0.032-0.168-0.066-0.229-0.101s-0.106-0.066-0.133-0.093c-0.027-0.027-0.046-0.066-0.058-0.117s-0.018-0.124-0.018-0.22c0-0.065 0.002-0.118 0.006-0.162s0.011-0.079 0.021-0.107 0.021-0.046 0.037-0.058c0.016-0.011 0.034-0.017 0.054-0.017 0.029 0 0.070 0.017 0.123 0.052s0.122 0.072 0.205 0.114c0.083 0.042 0.183 0.079 0.298 0.114s0.25 0.052 0.402 0.052c0.1 0 0.19-0.012 0.268-0.036s0.146-0.057 0.201-0.101 0.097-0.098 0.127-0.162c0.030-0.065 0.044-0.136 0.044-0.216 0-0.091-0.025-0.17-0.075-0.236s-0.115-0.123-0.196-0.175c-0.080-0.051-0.171-0.098-0.273-0.143s-0.207-0.092-0.316-0.142c-0.108-0.050-0.213-0.107-0.316-0.171s-0.193-0.139-0.273-0.228c-0.080-0.088-0.146-0.194-0.195-0.314s-0.075-0.266-0.075-0.434c0-0.194 0.036-0.364 0.107-0.511s0.168-0.269 0.29-0.365 0.266-0.169 0.431-0.217c0.085-0.025 0.173-0.043 0.263-0.054v-0.517h0.492v0.517c0.020 0.003 0.039 0.002 0.059 0.005 0.095 0.014 0.185 0.034 0.268 0.059s0.157 0.052 0.222 0.083c0.065 0.031 0.107 0.056 0.128 0.077s0.034 0.038 0.043 0.053c0.007 0.014 0.013 0.034 0.018 0.058s0.009 0.054 0.011 0.091c0.002 0.036 0.003 0.082 0.003 0.136 0 0.061-0.002 0.112-0.005 0.154-0.005 0.040-0.009 0.074-0.017 0.101zM5.5 8c0 1.656 1.119 3 2.5 3h-6.5v-6h6.5c-1.381 0-2.5 1.343-2.5 3zM3.5 7c-0.414 0-0.75 0.448-0.75 1s0.336 1 0.75 1c0.414 0 0.75-0.448 0.75-1s-0.336-1-0.75-1z"></path>
</svg>
