<!-- Generated by IcoMoon.io -->
<svg version="1.1" xmlns="http://www.w3.org/2000/svg" width="14" height="14" viewBox="0 0 14 14">
<title>external-link</title>
<path d="M11 7.25v2.5c0 1.242-1.008 2.25-2.25 2.25h-6.5c-1.242 0-2.25-1.008-2.25-2.25v-6.5c0-1.242 1.008-2.25 2.25-2.25h5.5c0.141 0 0.25 0.109 0.25 0.25v0.5c0 0.141-0.109 0.25-0.25 0.25h-5.5c-0.688 0-1.25 0.563-1.25 1.25v6.5c0 0.688 0.563 1.25 1.25 1.25h6.5c0.688 0 1.25-0.563 1.25-1.25v-2.5c0-0.141 0.109-0.25 0.25-0.25h0.5c0.141 0 0.25 0.109 0.25 0.25zM14 0.5v4c0 0.273-0.227 0.5-0.5 0.5-0.133 0-0.258-0.055-0.352-0.148l-1.375-1.375-5.094 5.094c-0.047 0.047-0.117 0.078-0.18 0.078s-0.133-0.031-0.18-0.078l-0.891-0.891c-0.047-0.047-0.078-0.117-0.078-0.18s0.031-0.133 0.078-0.18l5.094-5.094-1.375-1.375c-0.094-0.094-0.148-0.219-0.148-0.352 0-0.273 0.227-0.5 0.5-0.5h4c0.273 0 0.5 0.227 0.5 0.5z"></path>
</svg>
