<!-- Generated by IcoMoon.io -->
<svg version="1.1" xmlns="http://www.w3.org/2000/svg" width="15" height="14" viewBox="0 0 15 14">
<title>money</title>
<path d="M6 9h3v-0.75h-1v-3.5h-0.891l-1.156 1.070 0.602 0.625c0.187-0.164 0.305-0.25 0.43-0.445h0.016v2.25h-1v0.75zM10 7c0 1.422-0.859 3.25-2.5 3.25s-2.5-1.828-2.5-3.25 0.859-3.25 2.5-3.25 2.5 1.828 2.5 3.25zM14 9v-4c-1.102 0-2-0.898-2-2h-9c0 1.102-0.898 2-2 2v4c1.102 0 2 0.898 2 2h9c0-1.102 0.898-2 2-2zM15 2.5v9c0 0.273-0.227 0.5-0.5 0.5h-14c-0.273 0-0.5-0.227-0.5-0.5v-9c0-0.273 0.227-0.5 0.5-0.5h14c0.273 0 0.5 0.227 0.5 0.5z"></path>
</svg>
