<!-- Generated by IcoMoon.io -->
<svg version="1.1" xmlns="http://www.w3.org/2000/svg" width="16" height="16" viewBox="0 0 16 16">
<title>phone</title>
<path d="M7.665 9.88c-0.013-0.009-1.517-2.537-1.522-2.57-0.311-0.679-0.562-1.375-0.039-1.683l-2.171-3.66c-0.563 0.421-2.154 2.703 0.825 7.874 3.137 5.45 6.123 5.223 6.721 4.854l-2.115-3.572c-0.5 0.294-0.921-0.191-1.699-1.243zM12.931 13.309l0.001-0.003c0 0-1.652-2.783-1.652-2.784-0.131-0.22-0.412-0.29-0.632-0.162l-1.012 0.598 2.121 3.583c0 0 1.012-0.595 1.011-0.598h0.002c0.232-0.138 0.286-0.423 0.162-0.635zM7.393 4.868v-0.002c0.232-0.138 0.287-0.423 0.162-0.633l0.001-0.003c0 0-1.699-2.865-1.7-2.865-0.13-0.222-0.413-0.29-0.631-0.162l-1.012 0.599 2.168 3.662c0 0 1.011-0.595 1.012-0.596z"></path>
</svg>
