<!-- Generated by IcoMoon.io -->
<svg version="1.1" xmlns="http://www.w3.org/2000/svg" width="16" height="16" viewBox="0 0 16 16">
<title>time</title>
<path d="M8 1.75c-3.591 0-6.5 2.91-6.5 6.5s2.909 6.5 6.5 6.5c3.59 0 6.5-2.91 6.5-6.5s-2.91-6.5-6.5-6.5zM7.947 13.514c-2.899 0-5.25-2.351-5.25-5.25s2.351-5.25 5.25-5.25c2.899 0 5.25 2.351 5.25 5.25s-2.351 5.25-5.25 5.25zM9.465 8.566h-1.49v-2.516c0-0.273-0.221-0.495-0.495-0.495s-0.495 0.221-0.495 0.495v3.011c0 0.274 0.221 0.495 0.495 0.495h1.985c0.274 0 0.495-0.221 0.495-0.495s-0.222-0.495-0.495-0.495z"></path>
</svg>
